<svg width="234" height="234" fill="none" xmlns="http://www.w3.org/2000/svg">
  <path d="M187.197 10h46.797L117.001 224.805.008 10h89.5L117 59.81 143.91 10h43.287Z" fill="#41B883"/>
  <path d="M.008 10 117 224.805 233.994 10h-46.797l-70.196 128.883L46.221 10H.007Z" fill="#41B883"/>
  <path d="M46.219 10 117 139.506 187.196 10h-43.288L117 59.81 89.506 10H46.22Z" fill="#35495E"/>
  <path d="M210.562 138.833v14.557h-78.124v-14.557h78.124Zm0-7.278h-78.124c-2.073 0-4.06.767-5.525 2.131-1.465 1.365-2.288 3.217-2.288 5.147v14.557c0 1.93.823 3.781 2.288 5.146 1.465 1.365 3.452 2.132 5.525 2.132h78.124c2.073 0 4.06-.767 5.525-2.132 1.465-1.365 2.288-3.216 2.288-5.146v-14.557c0-1.93-.823-3.782-2.288-5.147-1.465-1.364-3.452-2.131-5.525-2.131Zm-62.5 43.67v36.391h-15.624v-36.391h15.624Zm0-7.279h-15.624c-2.073 0-4.06.767-5.525 2.132-1.465 1.365-2.288 3.216-2.288 5.147v36.391c0 1.93.823 3.782 2.288 5.147 1.465 1.365 3.452 2.131 5.525 2.131h15.624c2.073 0 4.06-.766 5.525-2.131 1.465-1.365 2.288-3.217 2.288-5.147v-36.391c0-1.931-.823-3.782-2.288-5.147-1.465-1.365-3.452-2.132-5.525-2.132Zm62.5 7.279v36.391H171.5v-36.391h39.062Zm0-7.279H171.5c-2.072 0-4.059.767-5.524 2.132-1.465 1.365-2.288 3.216-2.288 5.147v36.391c0 1.93.823 3.782 2.288 5.147 1.465 1.365 3.452 2.131 5.524 2.131h39.062c2.073 0 4.06-.766 5.525-2.131 1.465-1.365 2.288-3.217 2.288-5.147v-36.391c0-1.931-.823-3.782-2.288-5.147-1.465-1.365-3.452-2.132-5.525-2.132Z" fill="#000"/>
</svg>